<svg xmlns="http://www.w3.org/2000/svg" width="24" height="24" viewBox="0 0 24 24">
    <path fill="#888" fill-rule="evenodd" d="M7.2 19.2c-1.32 0-2.4 1.08-2.4 2.4 0 1.32 1.08 2.4 2.4 2.4 1.32 0 2.4-1.08 2.4-2.4 0-1.32-1.08-2.4-2.4-2.4zM0 0v2.4h2.4l4.32 9.12-1.68 2.88c-.12.36-.24.84-.24 1.2 0 1.32 1.08 2.4 2.4 2.4h14.4v-2.4H7.68c-.12 0-.24-.12-.24-.24v-.12l1.08-2.04h8.88c.96 0 1.68-.48 2.04-1.2l4.32-7.8c.24-.24.24-.36.24-.6 0-.72-.48-1.2-1.2-1.2H5.04L3.96 0H0zm19.2 19.2c-1.32 0-2.4 1.08-2.4 2.4 0 1.32 1.08 2.4 2.4 2.4 1.32 0 2.4-1.08 2.4-2.4 0-1.32-1.08-2.4-2.4-2.4z"/>
</svg>
