<svg xmlns="http://www.w3.org/2000/svg" width="23" height="21" viewBox="0 0 23 21">
    <path fill="#FFF" fill-rule="evenodd" d="M16.111 0c-1.889 0-3.778.889-5 2.333C9.89.89 8 0 6.111 0 2.667 0 0 2.667 0 6.111c0 4.222 3.778 7.667 9.556 12.778l1.555 1.444 1.556-1.444c5.666-5.222 9.555-8.667 9.555-12.778 0-3.444-2.666-6.111-6.11-6.111zm-4.889 17.333h-.11l-.112-.11C5.667 12.443 2.222 9.332 2.222 6.11c0-2.222 1.667-3.889 3.89-3.889 1.666 0 3.332 1.111 4 2.667h2.11c.556-1.556 2.222-2.667 3.89-2.667C18.332 2.222 20 3.89 20 6.112c0 3.221-3.444 6.332-8.778 11.221z"/>
</svg>
